<?xml version="1.0" encoding="utf-8"?>
<!-- Generator: Adobe Illustrator 24.1.1, SVG Export Plug-In . SVG Version: 6.00 Build 0)  -->
<svg version="1.1" id="Layer_1" xmlns="http://www.w3.org/2000/svg" xmlns:xlink="http://www.w3.org/1999/xlink" x="0px" y="0px"
	 viewBox="0 0 512 512" style="enable-background:new 0 0 512 512;" xml:space="preserve">
<style type="text/css">
	.st0{fill-rule:evenodd;clip-rule:evenodd;}
</style>
<g>
	<path class="st0" d="M45.1,5.8C52.8-1.9,65.3-1.9,73,5.7L73,5.8l236.3,236.3c7.7,7.7,7.7,20.1,0,27.8l0,0L73,506.2
		c-7.7,7.7-20.2,7.7-27.9,0c-7.7-7.7-7.7-20.2,0-27.9L267.5,256L45.1,33.7C37.5,26,37.4,13.5,45.1,5.8L45.1,5.8z" style="fill: white;"/>
	<path class="st0" d="M202.7,5.8c7.7-7.7,20.2-7.7,27.8-0.1l0.1,0.1l236.3,236.3c7.7,7.7,7.7,20.1,0,27.8l0,0L230.6,506.2
		c-7.7,7.7-20.2,7.7-27.9,0c-7.7-7.7-7.7-20.2,0-27.9L425.1,256L202.7,33.7C195,26,195,13.5,202.7,5.8L202.7,5.8z" style="fill: white;"/>
</g>
</svg>
