<?xml version="1.0" standalone="no"?>
<!DOCTYPE svg PUBLIC "-//W3C//DTD SVG 20010904//EN"
 "http://www.w3.org/TR/2001/REC-SVG-20010904/DTD/svg10.dtd">
<svg version="1.0" xmlns="http://www.w3.org/2000/svg"
 width="512.000000pt" height="512.000000pt" viewBox="0 0 512.000000 512.000000"
 preserveAspectRatio="xMidYMid meet">
<metadata>
Created by potrace 1.14, written by Peter Selinger 2001-2017
</metadata>
<g transform="translate(0.000000,512.000000) scale(0.100000,-0.100000)"
fill="#000000" stroke="none">
<path d="M2378 5115 c-2 -1 -38 -5 -80 -9 -43 -4 -83 -8 -90 -11 -7 -2 -35 -6
-63 -9 -159 -19 -442 -105 -640 -195 -648 -296 -1140 -839 -1371 -1513 -32
-92 -57 -182 -68 -238 -2 -14 -11 -56 -19 -95 -16 -75 -23 -123 -35 -225 -9
-85 -9 -425 0 -515 16 -150 73 -423 113 -540 47 -137 64 -178 146 -350 33 -71
133 -238 187 -315 342 -484 810 -823 1373 -993 125 -38 281 -72 374 -82 33 -3
87 -10 119 -14 104 -14 480 -6 601 13 861 133 1598 682 1958 1456 81 176 165
439 191 600 3 19 8 46 11 60 38 183 41 577 6 805 -95 611 -383 1134 -852 1544
-216 189 -448 332 -734 451 -178 75 -464 145 -685 168 -74 8 -434 14 -442 7z"/>
</g>
</svg>
